# Blender v2.73 (sub 0) OBJ File: ''
# www.blender.org
o Cube
v 1.000000 -1.000000 -1.000000
v 1.000000 -1.000000 1.000000
v -1.000000 -1.000000 1.000000
v -1.000000 -1.000000 -1.000000
v 1.000000 1.000000 -0.999999
v 0.999999 1.000000 1.000001
v -1.000000 1.000000 1.000000
v -1.000000 1.000000 -1.000000
vt 0.748709 0.003391
vt 0.748709 0.249268
vt 0.502832 0.249268
vt 0.500799 0.750200
vt 0.500799 0.500799
vt 0.750200 0.500799
vt 0.751481 0.499251
vt 0.499519 0.499251
vt 0.499519 0.247288
vt 0.999446 0.497446
vt 0.746172 0.497446
vt 0.746172 0.244172
vt 0.248212 0.250165
vt 0.497881 0.250165
vt 0.497881 0.499835
vt 0.250723 0.247323
vt 0.250723 0.498770
vt -0.000723 0.498770
vt 0.502832 0.003391
vt 0.750200 0.750200
vt 0.751481 0.247288
vt 0.999446 0.244172
vt 0.248212 0.499835
vt -0.000723 0.247323
vn 0.000000 -1.000000 0.000000
vn 0.000000 1.000000 0.000000
vn 1.000000 0.000000 0.000000
vn -0.000000 0.000000 1.000000
vn -1.000000 -0.000000 -0.000000
vn 0.000000 0.000000 -1.000000
s off
f 2/1/1 3/2/1 4/3/1
f 8/4/2 7/5/2 6/6/2
f 5/7/3 6/8/3 2/9/3
f 6/10/4 7/11/4 3/12/4
f 3/13/5 7/14/5 8/15/5
f 1/16/6 4/17/6 8/18/6
f 1/19/1 2/1/1 4/3/1
f 5/20/2 8/4/2 6/6/2
f 1/21/3 5/7/3 2/9/3
f 2/22/4 6/10/4 3/12/4
f 4/23/5 3/13/5 8/15/5
f 5/24/6 1/16/6 8/18/6
